<svg id="Capa_1" enable-background="new 0 0 512.016 512.016" height="512" viewBox="0 0 512.016 512.016" width="512" xmlns="http://www.w3.org/2000/svg"><g><path d="m211.008 375.008h90v122h-90z" fill="#d2dce7"/><path d="m256.008 375.008h45v122h-45z" fill="#a1aebc"/><g><g><g><path d="m307.969 120.008c-4.142-7.175-1.684-16.348 5.49-20.49l51.962-30c7.174-4.142 16.349-1.684 20.49 5.49 4.142 7.175 1.684 16.348-5.49 20.49l-51.962 30c-7.127 4.116-16.321 1.731-20.49-5.49z" fill="#ff9f00"/></g></g></g><g><path d="m271.008 15.008v60c0 8.28-6.72 15-15 15s-15-6.72-15-15v-60c0-8.28 6.72-15 15-15s15 6.72 15 15z" fill="#ffb64c"/></g><path d="m271.008 15.008v60c0 8.28-6.72 15-15 15v-90c8.28 0 15 6.72 15 15z" fill="#ff9f00"/><g><path d="m183.556 125.498-51.962-30c-7.174-4.142-9.632-13.316-5.49-20.49 4.141-7.175 13.315-9.632 20.49-5.49l51.962 30c7.174 4.142 9.632 13.316 5.49 20.49-4.154 7.196-13.336 9.621-20.49 5.49z" fill="#ffb64c"/></g><path d="m346.008 150.008c0 8.28-6.72 15-15 15h-150c-8.28 0-15-6.72-15-15 0-49.63 40.37-90 90-90s90 40.37 90 90z" fill="#fed843"/><path d="m346.008 150.008c0 8.28-6.72 15-15 15h-75v-105c49.63 0 90 40.37 90 90z" fill="#ffb64c"/><g><path d="m511.488 371.078-61-225c-1.77-6.53-7.71-11.07-14.48-11.07h-360c-6.77 0-12.71 4.54-14.48 11.07l-61 225c-2.577 9.528 4.608 18.93 14.48 18.93h482c9.872 0 17.057-9.402 14.48-18.93z" fill="#eff6fe"/><path d="m497.008 390.008h-241v-255h180c6.77 0 12.71 4.54 14.48 11.07l61 225c2.577 9.528-4.608 18.93-14.48 18.93z" fill="#d2dce7"/><path d="m87.478 165.008h61.4l-4 30h-65.53z" fill="#6aa9ff"/><path d="m179.138 165.008h61.87v30h-65.87z" fill="#6aa9ff"/><path d="m332.878 165.008 4 30h-65.87v-30z" fill="#2682ff"/><path d="m432.668 195.008h-65.53l-4-30h61.4z" fill="#2682ff"/><path d="m71.218 225.008h69.66l-6 45h-75.86z" fill="#6aa9ff"/><path d="m241.008 225.008v45h-75.87l6-45z" fill="#6aa9ff"/><path d="m346.878 270.008h-75.87v-45h69.87z" fill="#2682ff"/><path d="m452.998 270.008h-75.86l-6-45h69.66z" fill="#2682ff"/><path d="m50.878 300.008h80l-8 60h-88.26z" fill="#6aa9ff"/><path d="m161.138 300.008h79.87v60h-87.87z" fill="#6aa9ff"/><g fill="#2682ff"><path d="m350.878 300.008 8 60h-87.87v-60z"/><path d="m477.398 360.008h-88.26l-8-60h80z"/></g></g><g><path d="m421.008 497.008c0 8.28-6.72 15-15 15h-300c-8.28 0-15-6.72-15-15s6.72-15 15-15h300c8.28 0 15 6.72 15 15z" fill="#eff6fe"/></g><path d="m421.008 497.008c0 8.28-6.72 15-15 15h-150v-30h150c8.28 0 15 6.72 15 15z" fill="#d2dce7"/></g></svg>